<svg width="368" height="193" viewBox="0 0 368 193" fill="none" xmlns="http://www.w3.org/2000/svg">
<g clip-path="url(#clip0_5_3)">
<circle cx="152.425" cy="126.425" r="58.4252" stroke="white" stroke-width="10"/>
<path d="M169.748 171.111C184.437 165.666 193.323 155.472 193.323 155.472C193.323 155.472 170.809 156.759 157.94 154.001C145.072 151.244 131.283 142.971 131.283 142.971C131.283 142.971 130.858 151.428 134.96 160.436C139.063 169.443 144.929 174.787 144.929 174.787C144.929 174.787 155.059 176.555 169.748 171.111Z" fill="white" stroke="white"/>
<path d="M167.038 80.4837C151.954 76.2529 138.773 79.2752 138.773 79.2752C138.773 79.2752 158.86 89.657 168.971 98.849C179.082 108.041 180.921 124.587 180.921 124.587C180.921 124.587 186.963 115.395 188.274 108.96C189.586 102.526 190.113 95.1722 190.113 95.1722C190.113 95.1722 182.122 84.7145 167.038 80.4837Z" fill="white" stroke="white"/>
<path d="M200.912 125.687C200.873 110.022 194.373 98.1629 194.373 98.1629C194.373 98.1629 194.709 112.637 185.517 126.425C176.325 140.213 160.698 150.324 160.698 150.324C160.698 150.324 172.889 152.903 182.759 152.163C192.629 151.423 195.628 148.486 195.628 148.486C195.628 148.486 200.95 141.353 200.912 125.687Z" fill="white" stroke="white"/>
<path d="M112.575 99.2087C103.948 112.285 102.808 125.76 102.808 125.76C102.808 125.76 118.415 109.879 131.283 105.283C144.152 100.687 167.132 103.445 167.132 103.445C167.132 103.445 156.463 93.577 147.829 88.7377C139.195 83.8985 130.418 81.57 130.418 81.57C130.418 81.57 121.203 86.1328 112.575 99.2087Z" fill="white" stroke="white"/>
<path d="M114.557 156.508C124.527 168.591 137.075 173.633 137.075 173.633C137.075 173.633 127.607 154.001 126.687 141.132C125.768 128.264 130.364 110.799 130.364 110.799C130.364 110.799 120.977 114.994 113.819 121.829C106.66 128.664 102.927 134.277 102.927 134.277C102.927 134.277 104.586 144.425 114.557 156.508Z" fill="white" stroke="white"/>
<g filter="url(#filter0_d_5_3)">
<mask id="path-7-outside-1_5_3" maskUnits="userSpaceOnUse" x="18" y="-1" width="111" height="41" fill="black">
<rect fill="white" x="18" y="-1" width="111" height="41"/>
<path d="M38.145 29.65C38.145 32.7667 37.2833 35.1133 35.56 36.69C33.8733 38.23 31.435 39 28.245 39H20.435V34.82H28.795C30.1517 34.82 31.2517 34.4167 32.095 33.61C32.9383 32.8033 33.36 31.8317 33.36 30.695V24.975C33.36 23.875 33.0667 22.995 32.48 22.335C31.93 21.6383 31.0867 21.29 29.95 21.29H28.3C25.5867 21.29 23.4417 20.5017 21.865 18.925C20.2883 17.3117 19.5 14.9833 19.5 11.94V9.85C19.5 6.73333 20.3433 4.405 22.03 2.865C23.7533 1.28833 26.21 0.499997 29.4 0.499997H37.265V4.68H28.85C27.4933 4.68 26.3933 5.08333 25.55 5.89C24.7067 6.69666 24.285 7.66833 24.285 8.805V12.985C24.285 14.1217 24.6517 15.075 25.385 15.845C26.1183 16.5783 27.0717 16.945 28.245 16.945H29.895C32.4983 16.945 34.515 17.6967 35.945 19.2C37.4117 20.7033 38.145 22.9767 38.145 26.02V29.65ZM52.5021 39H48.0471V0.499997H55.8571L64.5471 34.93V0.499997H69.0021V39H61.1371L52.5021 4.57V39ZM82.9193 29.265L80.7743 39H75.8793L85.1743 0.499997H91.4993L100.629 39H95.7343L93.6443 29.265H82.9193ZM92.7643 25.14L88.2543 4.13L83.7993 25.14H92.7643ZM127.911 15.35C127.911 18.32 127.123 20.52 125.546 21.95C123.97 23.3433 121.641 24.04 118.561 24.04H112.841V39H108.056V0.499997H118.451C121.568 0.499997 123.915 1.19666 125.491 2.59C127.105 3.94667 127.911 6.11 127.911 9.08V15.35ZM123.126 8.585C123.126 7.19167 122.796 6.18333 122.136 5.56C121.513 4.93667 120.505 4.625 119.111 4.625H112.841V19.915H119.111C120.505 19.915 121.513 19.6033 122.136 18.98C122.796 18.32 123.126 17.2933 123.126 15.9V8.585Z"/>
</mask>
<path d="M38.145 29.65C38.145 32.7667 37.2833 35.1133 35.56 36.69C33.8733 38.23 31.435 39 28.245 39H20.435V34.82H28.795C30.1517 34.82 31.2517 34.4167 32.095 33.61C32.9383 32.8033 33.36 31.8317 33.36 30.695V24.975C33.36 23.875 33.0667 22.995 32.48 22.335C31.93 21.6383 31.0867 21.29 29.95 21.29H28.3C25.5867 21.29 23.4417 20.5017 21.865 18.925C20.2883 17.3117 19.5 14.9833 19.5 11.94V9.85C19.5 6.73333 20.3433 4.405 22.03 2.865C23.7533 1.28833 26.21 0.499997 29.4 0.499997H37.265V4.68H28.85C27.4933 4.68 26.3933 5.08333 25.55 5.89C24.7067 6.69666 24.285 7.66833 24.285 8.805V12.985C24.285 14.1217 24.6517 15.075 25.385 15.845C26.1183 16.5783 27.0717 16.945 28.245 16.945H29.895C32.4983 16.945 34.515 17.6967 35.945 19.2C37.4117 20.7033 38.145 22.9767 38.145 26.02V29.65ZM52.5021 39H48.0471V0.499997H55.8571L64.5471 34.93V0.499997H69.0021V39H61.1371L52.5021 4.57V39ZM82.9193 29.265L80.7743 39H75.8793L85.1743 0.499997H91.4993L100.629 39H95.7343L93.6443 29.265H82.9193ZM92.7643 25.14L88.2543 4.13L83.7993 25.14H92.7643ZM127.911 15.35C127.911 18.32 127.123 20.52 125.546 21.95C123.97 23.3433 121.641 24.04 118.561 24.04H112.841V39H108.056V0.499997H118.451C121.568 0.499997 123.915 1.19666 125.491 2.59C127.105 3.94667 127.911 6.11 127.911 9.08V15.35ZM123.126 8.585C123.126 7.19167 122.796 6.18333 122.136 5.56C121.513 4.93667 120.505 4.625 119.111 4.625H112.841V19.915H119.111C120.505 19.915 121.513 19.6033 122.136 18.98C122.796 18.32 123.126 17.2933 123.126 15.9V8.585Z" fill="white"/>
<path d="M35.56 36.69L36.2343 37.4285L36.235 37.4278L35.56 36.69ZM20.435 39H19.435V40H20.435V39ZM20.435 34.82V33.82H19.435V34.82H20.435ZM32.48 22.335L31.6951 22.9546L31.7132 22.9776L31.7326 22.9994L32.48 22.335ZM21.865 18.925L21.1498 19.624L21.1579 19.6321L21.865 18.925ZM22.03 2.865L22.7043 3.60349L22.705 3.6028L22.03 2.865ZM37.265 0.499997H38.265V-0.500003H37.265V0.499997ZM37.265 4.68V5.68H38.265V4.68H37.265ZM25.55 5.89L24.8588 5.16735L24.8588 5.16736L25.55 5.89ZM25.385 15.845L24.6609 16.5347L24.6693 16.5435L24.6779 16.5521L25.385 15.845ZM35.945 19.2L35.2204 19.8893L35.2292 19.8983L35.945 19.2ZM38.145 29.65H37.145C37.145 32.5843 36.3384 34.6225 34.885 35.9522L35.56 36.69L36.235 37.4278C38.2282 35.6042 39.145 32.949 39.145 29.65H38.145ZM35.56 36.69L34.8857 35.9515C33.4454 37.2666 31.2847 38 28.245 38V39V40C31.5853 40 34.3013 39.1934 36.2343 37.4285L35.56 36.69ZM28.245 39V38H20.435V39V40H28.245V39ZM20.435 39H21.435V34.82H20.435H19.435V39H20.435ZM20.435 34.82V35.82H28.795V34.82V33.82H20.435V34.82ZM28.795 34.82V35.82C30.3643 35.82 31.7267 35.3461 32.7862 34.3326L32.095 33.61L31.4038 32.8874C30.7767 33.4872 29.9391 33.82 28.795 33.82V34.82ZM32.095 33.61L32.7862 34.3326C33.8208 33.343 34.36 32.1127 34.36 30.695H33.36H32.36C32.36 31.5506 32.0558 32.2637 31.4038 32.8874L32.095 33.61ZM33.36 30.695H34.36V24.975H33.36H32.36V30.695H33.36ZM33.36 24.975H34.36C34.36 23.6926 34.014 22.5556 33.2274 21.6706L32.48 22.335L31.7326 22.9994C32.1193 23.4344 32.36 24.0574 32.36 24.975H33.36ZM32.48 22.335L33.2649 21.7154C32.474 20.7135 31.2991 20.29 29.95 20.29V21.29V22.29C30.8742 22.29 31.386 22.5631 31.6951 22.9546L32.48 22.335ZM29.95 21.29V20.29H28.3V21.29V22.29H29.95V21.29ZM28.3 21.29V20.29C25.7906 20.29 23.9219 19.5677 22.5721 18.2179L21.865 18.925L21.1579 19.6321C22.9614 21.4356 25.3827 22.29 28.3 22.29V21.29ZM21.865 18.925L22.5802 18.2261C21.2424 16.8572 20.5 14.8156 20.5 11.94H19.5H18.5C18.5 15.1511 19.3342 17.7661 21.1498 19.6239L21.865 18.925ZM19.5 11.94H20.5V9.85H19.5H18.5V11.94H19.5ZM19.5 9.85H20.5C20.5 6.90783 21.2925 4.89248 22.7043 3.60349L22.03 2.865L21.3557 2.12651C19.3942 3.91752 18.5 6.55883 18.5 9.85H19.5ZM22.03 2.865L22.705 3.6028C24.1856 2.2482 26.3675 1.5 29.4 1.5V0.499997V-0.500003C26.0525 -0.500003 23.321 0.328463 21.355 2.12719L22.03 2.865ZM29.4 0.499997V1.5H37.265V0.499997V-0.500003H29.4V0.499997ZM37.265 0.499997H36.265V4.68H37.265H38.265V0.499997H37.265ZM37.265 4.68V3.68H28.85V4.68V5.68H37.265V4.68ZM28.85 4.68V3.68C27.2807 3.68 25.9183 4.15388 24.8588 5.16735L25.55 5.89L26.2412 6.61264C26.8683 6.01279 27.7059 5.68 28.85 5.68V4.68ZM25.55 5.89L24.8588 5.16736C23.8242 6.157 23.285 7.3873 23.285 8.805H24.285H25.285C25.285 7.94936 25.5892 7.23633 26.2412 6.61264L25.55 5.89ZM24.285 8.805H23.285V12.985H24.285H25.285V8.805H24.285ZM24.285 12.985H23.285C23.285 14.359 23.7375 15.5651 24.6609 16.5347L25.385 15.845L26.1091 15.1553C25.5659 14.5849 25.285 13.8844 25.285 12.985H24.285ZM25.385 15.845L24.6779 16.5521C25.624 17.4982 26.8444 17.945 28.245 17.945V16.945V15.945C27.2989 15.945 26.6127 15.6584 26.0921 15.1379L25.385 15.845ZM28.245 16.945V17.945H29.895V16.945V15.945H28.245V16.945ZM29.895 16.945V17.945C32.2986 17.945 34.0249 18.6323 35.2204 19.8892L35.945 19.2L36.6696 18.5108C35.0051 16.761 32.698 15.945 29.895 15.945V16.945ZM35.945 19.2L35.2292 19.8983C36.4457 21.1452 37.145 23.1207 37.145 26.02H38.145H39.145C39.145 22.8327 38.3776 20.2614 36.6608 18.5017L35.945 19.2ZM38.145 26.02H37.145V29.65H38.145H39.145V26.02H38.145ZM52.5021 39V40H53.5021V39H52.5021ZM48.0471 39H47.0471V40H48.0471V39ZM48.0471 0.499997V-0.500003H47.0471V0.499997H48.0471ZM55.8571 0.499997L56.8267 0.255276L56.6361 -0.500003H55.8571V0.499997ZM64.5471 34.93L63.5776 35.1747L65.5471 34.93H64.5471ZM64.5471 0.499997V-0.500003H63.5471V0.499997H64.5471ZM69.0021 0.499997H70.0021V-0.500003H69.0021V0.499997ZM69.0021 39V40H70.0021V39H69.0021ZM61.1371 39L60.1672 39.2433L60.357 40H61.1371V39ZM52.5021 4.57L53.4721 4.32673L51.5021 4.57H52.5021ZM52.5021 39V38H48.0471V39V40H52.5021V39ZM48.0471 39H49.0471V0.499997H48.0471H47.0471V39H48.0471ZM48.0471 0.499997V1.5H55.8571V0.499997V-0.500003H48.0471V0.499997ZM55.8571 0.499997L54.8876 0.744719L63.5776 35.1747L64.5471 34.93L65.5167 34.6853L56.8267 0.255276L55.8571 0.499997ZM64.5471 34.93H65.5471V0.499997H64.5471H63.5471V34.93H64.5471ZM64.5471 0.499997V1.5H69.0021V0.499997V-0.500003H64.5471V0.499997ZM69.0021 0.499997H68.0021V39H69.0021H70.0021V0.499997H69.0021ZM69.0021 39V38H61.1371V39V40H69.0021V39ZM61.1371 39L62.1071 38.7567L53.4721 4.32673L52.5021 4.57L51.5322 4.81326L60.1672 39.2433L61.1371 39ZM52.5021 4.57H51.5021V39H52.5021H53.5021V4.57H52.5021ZM82.9193 29.265V28.265H82.1156L81.9427 29.0498L82.9193 29.265ZM80.7743 39V40H81.5779L81.7509 39.2152L80.7743 39ZM75.8793 39L74.9072 38.7653L74.6091 40H75.8793V39ZM85.1743 0.499997V-0.500003H84.387L84.2022 0.265312L85.1743 0.499997ZM91.4993 0.499997L92.4723 0.269254L92.2899 -0.500003H91.4993V0.499997ZM100.629 39V40H101.894L101.602 38.7693L100.629 39ZM95.7343 39L94.7566 39.2099L94.9262 40H95.7343V39ZM93.6443 29.265L94.622 29.0551L94.4524 28.265H93.6443V29.265ZM92.7643 25.14V26.14H94.0017L93.742 24.9301L92.7643 25.14ZM88.2543 4.13L89.232 3.92012L87.276 3.92257L88.2543 4.13ZM83.7993 25.14L82.821 24.9326L82.565 26.14H83.7993V25.14ZM82.9193 29.265L81.9427 29.0498L79.7977 38.7848L80.7743 39L81.7509 39.2152L83.8959 29.4802L82.9193 29.265ZM80.7743 39V38H75.8793V39V40H80.7743V39ZM75.8793 39L76.8514 39.2347L86.1464 0.734683L85.1743 0.499997L84.2022 0.265312L74.9072 38.7653L75.8793 39ZM85.1743 0.499997V1.5H91.4993V0.499997V-0.500003H85.1743V0.499997ZM91.4993 0.499997L90.5263 0.730741L99.6563 39.2307L100.629 39L101.602 38.7693L92.4723 0.269254L91.4993 0.499997ZM100.629 39V38H95.7343V39V40H100.629V39ZM95.7343 39L96.712 38.7901L94.622 29.0551L93.6443 29.265L92.6666 29.4749L94.7566 39.2099L95.7343 39ZM93.6443 29.265V28.265H82.9193V29.265V30.265H93.6443V29.265ZM92.7643 25.14L93.742 24.9301L89.232 3.92012L88.2543 4.13L87.2766 4.33988L91.7866 25.3499L92.7643 25.14ZM88.2543 4.13L87.276 3.92257L82.821 24.9326L83.7993 25.14L84.7775 25.3474L89.2325 4.33743L88.2543 4.13ZM83.7993 25.14V26.14H92.7643V25.14V24.14H83.7993V25.14ZM125.546 21.95L126.209 22.6994L126.218 22.6907L125.546 21.95ZM112.841 24.04V23.04H111.841V24.04H112.841ZM112.841 39V40H113.841V39H112.841ZM108.056 39H107.056V40H108.056V39ZM108.056 0.499997V-0.500003H107.056V0.499997H108.056ZM125.491 2.59L124.829 3.33933L124.838 3.34746L124.848 3.35536L125.491 2.59ZM122.136 5.56L121.429 6.26711L121.439 6.2772L121.45 6.28701L122.136 5.56ZM112.841 4.625V3.625H111.841V4.625H112.841ZM112.841 19.915H111.841V20.915H112.841V19.915ZM122.136 18.98L121.429 18.2729L121.429 18.2729L122.136 18.98ZM127.911 15.35H126.911C126.911 18.153 126.17 20.0344 124.875 21.2093L125.546 21.95L126.218 22.6907C128.076 21.0056 128.911 18.487 128.911 15.35H127.911ZM125.546 21.95L124.884 21.2007C123.559 22.3717 121.508 23.04 118.561 23.04V24.04V25.04C121.775 25.04 124.38 24.315 126.209 22.6993L125.546 21.95ZM118.561 24.04V23.04H112.841V24.04V25.04H118.561V24.04ZM112.841 24.04H111.841V39H112.841H113.841V24.04H112.841ZM112.841 39V38H108.056V39V40H112.841V39ZM108.056 39H109.056V0.499997H108.056H107.056V39H108.056ZM108.056 0.499997V1.5H118.451V0.499997V-0.500003H108.056V0.499997ZM118.451 0.499997V1.5C121.439 1.5 123.506 2.16995 124.829 3.33933L125.491 2.59L126.154 1.84067C124.324 0.223382 121.698 -0.500003 118.451 -0.500003V0.499997ZM125.491 2.59L124.848 3.35536C126.154 4.45374 126.911 6.27949 126.911 9.08H127.911H128.911C128.911 5.94051 128.056 3.43959 126.135 1.82463L125.491 2.59ZM127.911 9.08H126.911V15.35H127.911H128.911V9.08H127.911ZM123.126 8.585H124.126C124.126 7.06188 123.769 5.72602 122.823 4.83298L122.136 5.56L121.45 6.28701C121.824 6.64065 122.126 7.32145 122.126 8.585H123.126ZM122.136 5.56L122.844 4.85289C121.949 3.95796 120.621 3.625 119.111 3.625V4.625V5.625C120.389 5.625 121.078 5.91537 121.429 6.26711L122.136 5.56ZM119.111 4.625V3.625H112.841V4.625V5.625H119.111V4.625ZM112.841 4.625H111.841V19.915H112.841H113.841V4.625H112.841ZM112.841 19.915V20.915H119.111V19.915V18.915H112.841V19.915ZM119.111 19.915V20.915C120.621 20.915 121.949 20.582 122.844 19.6871L122.136 18.98L121.429 18.2729C121.078 18.6246 120.389 18.915 119.111 18.915V19.915ZM122.136 18.98L122.844 19.6871C123.766 18.7645 124.126 17.4291 124.126 15.9H123.126H122.126C122.126 17.1575 121.827 17.8755 121.429 18.2729L122.136 18.98ZM123.126 15.9H124.126V8.585H123.126H122.126V15.9H123.126Z" fill="white" mask="url(#path-7-outside-1_5_3)"/>
</g>
<mask id="path-9-outside-2_5_3" maskUnits="userSpaceOnUse" x="5" y="73" width="64" height="106" fill="black">
<rect fill="white" x="5" y="73" width="64" height="106"/>
<path d="M66.6 133.6C67.0933 135.573 67.34 138.04 67.34 141C67.34 143.837 67.0933 146.303 66.6 148.4C67.0933 150.373 67.34 152.84 67.34 155.8C67.34 158.637 67.0933 161.103 66.6 163.2H59.2C59.6933 165.173 59.94 167.64 59.94 170.6C59.94 173.437 59.6933 175.903 59.2 178H14.8C14.3067 175.903 14.06 173.437 14.06 170.6C14.06 167.64 14.3067 165.173 14.8 163.2H7.4C6.90667 161.103 6.66 158.637 6.66 155.8C6.66 152.84 6.90667 150.373 7.4 148.4H22.2C22.6933 150.373 22.94 152.84 22.94 155.8C22.94 158.637 22.6933 161.103 22.2 163.2H51.8C51.3067 161.103 51.06 158.637 51.06 155.8C51.06 152.84 51.3067 150.373 51.8 148.4C51.3067 146.303 51.06 143.837 51.06 141C51.06 138.04 51.3067 135.573 51.8 133.6H14.8C14.3067 131.503 14.06 129.037 14.06 126.2C14.06 123.24 14.3067 120.773 14.8 118.8H7.4C6.90667 116.703 6.66 114.237 6.66 111.4C6.66 108.44 6.90667 105.973 7.4 104C6.90667 101.903 6.66 99.4367 6.66 96.6C6.66 93.64 6.90667 91.1733 7.4 89.2H14.8C14.3067 87.1033 14.06 84.6367 14.06 81.8C14.06 78.84 14.3067 76.3733 14.8 74.4H59.2C59.6933 76.3733 59.94 78.84 59.94 81.8C59.94 84.6367 59.6933 87.1033 59.2 89.2H66.6C67.0933 91.1733 67.34 93.64 67.34 96.6C67.34 99.4367 67.0933 101.903 66.6 104H51.8C51.3067 101.903 51.06 99.4367 51.06 96.6C51.06 93.64 51.3067 91.1733 51.8 89.2H22.2C22.6933 91.1733 22.94 93.64 22.94 96.6C22.94 99.4367 22.6933 101.903 22.2 104C22.6933 105.973 22.94 108.44 22.94 111.4C22.94 114.237 22.6933 116.703 22.2 118.8H59.2C59.6933 120.773 59.94 123.24 59.94 126.2C59.94 129.037 59.6933 131.503 59.2 133.6H66.6Z"/>
</mask>
<path d="M66.6 133.6C67.0933 135.573 67.34 138.04 67.34 141C67.34 143.837 67.0933 146.303 66.6 148.4C67.0933 150.373 67.34 152.84 67.34 155.8C67.34 158.637 67.0933 161.103 66.6 163.2H59.2C59.6933 165.173 59.94 167.64 59.94 170.6C59.94 173.437 59.6933 175.903 59.2 178H14.8C14.3067 175.903 14.06 173.437 14.06 170.6C14.06 167.64 14.3067 165.173 14.8 163.2H7.4C6.90667 161.103 6.66 158.637 6.66 155.8C6.66 152.84 6.90667 150.373 7.4 148.4H22.2C22.6933 150.373 22.94 152.84 22.94 155.8C22.94 158.637 22.6933 161.103 22.2 163.2H51.8C51.3067 161.103 51.06 158.637 51.06 155.8C51.06 152.84 51.3067 150.373 51.8 148.4C51.3067 146.303 51.06 143.837 51.06 141C51.06 138.04 51.3067 135.573 51.8 133.6H14.8C14.3067 131.503 14.06 129.037 14.06 126.2C14.06 123.24 14.3067 120.773 14.8 118.8H7.4C6.90667 116.703 6.66 114.237 6.66 111.4C6.66 108.44 6.90667 105.973 7.4 104C6.90667 101.903 6.66 99.4367 6.66 96.6C6.66 93.64 6.90667 91.1733 7.4 89.2H14.8C14.3067 87.1033 14.06 84.6367 14.06 81.8C14.06 78.84 14.3067 76.3733 14.8 74.4H59.2C59.6933 76.3733 59.94 78.84 59.94 81.8C59.94 84.6367 59.6933 87.1033 59.2 89.2H66.6C67.0933 91.1733 67.34 93.64 67.34 96.6C67.34 99.4367 67.0933 101.903 66.6 104H51.8C51.3067 101.903 51.06 99.4367 51.06 96.6C51.06 93.64 51.3067 91.1733 51.8 89.2H22.2C22.6933 91.1733 22.94 93.64 22.94 96.6C22.94 99.4367 22.6933 101.903 22.2 104C22.6933 105.973 22.94 108.44 22.94 111.4C22.94 114.237 22.6933 116.703 22.2 118.8H59.2C59.6933 120.773 59.94 123.24 59.94 126.2C59.94 129.037 59.6933 131.503 59.2 133.6H66.6Z" fill="white"/>
<path d="M66.6 133.6L67.5701 133.357L67.3808 132.6H66.6V133.6ZM66.6 148.4L65.6266 148.171L65.571 148.407L65.6299 148.643L66.6 148.4ZM66.6 163.2V164.2H67.392L67.5734 163.429L66.6 163.2ZM59.2 163.2V162.2H57.9192L58.2299 163.443L59.2 163.2ZM59.2 178V179H59.992L60.1734 178.229L59.2 178ZM14.8 178L13.8266 178.229L14.008 179H14.8V178ZM14.8 163.2L15.7701 163.443L16.0808 162.2H14.8V163.2ZM7.4 163.2L6.42658 163.429L6.60799 164.2H7.4V163.2ZM7.4 148.4V147.4H6.61922L6.42986 148.157L7.4 148.4ZM22.2 148.4L23.1701 148.157L22.9808 147.4H22.2V148.4ZM22.2 163.2L21.2266 162.971L20.9374 164.2H22.2V163.2ZM51.8 163.2V164.2H53.0626L52.7734 162.971L51.8 163.2ZM51.8 148.4L52.7701 148.643L52.829 148.407L52.7734 148.171L51.8 148.4ZM51.8 133.6L52.7701 133.843L53.0808 132.6H51.8V133.6ZM14.8 133.6L13.8266 133.829L14.008 134.6H14.8V133.6ZM14.8 118.8L15.7701 119.043L16.0808 117.8H14.8V118.8ZM7.4 118.8L6.42658 119.029L6.60799 119.8H7.4V118.8ZM7.4 104L8.37014 104.243L8.42899 104.007L8.37342 103.771L7.4 104ZM7.4 89.2V88.2H6.61922L6.42986 88.9575L7.4 89.2ZM14.8 89.2V90.2H16.0626L15.7734 88.971L14.8 89.2ZM14.8 74.4V73.4H14.0192L13.8299 74.1575L14.8 74.4ZM59.2 74.4L60.1701 74.1575L59.9808 73.4H59.2V74.4ZM59.2 89.2L58.2266 88.971L57.9374 90.2H59.2V89.2ZM66.6 89.2L67.5701 88.9575L67.3808 88.2H66.6V89.2ZM66.6 104V105H67.392L67.5734 104.229L66.6 104ZM51.8 104L50.8266 104.229L51.008 105H51.8V104ZM51.8 89.2L52.7701 89.4425L53.0808 88.2H51.8V89.2ZM22.2 89.2V88.2H20.9192L21.2299 89.4425L22.2 89.2ZM22.2 104L21.2266 103.771L21.171 104.007L21.2299 104.243L22.2 104ZM22.2 118.8L21.2266 118.571L20.9374 119.8H22.2V118.8ZM59.2 118.8L60.1701 118.557L59.9808 117.8H59.2V118.8ZM59.2 133.6L58.2266 133.371L57.9374 134.6H59.2V133.6ZM66.6 133.6L65.6299 133.843C66.0966 135.71 66.34 138.088 66.34 141H67.34H68.34C68.34 137.992 68.0901 135.437 67.5701 133.357L66.6 133.6ZM67.34 141H66.34C66.34 143.782 66.0977 146.169 65.6266 148.171L66.6 148.4L67.5734 148.629C68.089 146.438 68.34 143.891 68.34 141H67.34ZM66.6 148.4L65.6299 148.643C66.0966 150.51 66.34 152.888 66.34 155.8H67.34H68.34C68.34 152.792 68.0901 150.237 67.5701 148.157L66.6 148.4ZM67.34 155.8H66.34C66.34 158.582 66.0977 160.969 65.6266 162.971L66.6 163.2L67.5734 163.429C68.089 161.238 68.34 158.691 68.34 155.8H67.34ZM66.6 163.2V162.2H59.2V163.2V164.2H66.6V163.2ZM59.2 163.2L58.2299 163.443C58.6966 165.31 58.94 167.688 58.94 170.6H59.94H60.94C60.94 167.592 60.6901 165.037 60.1701 162.957L59.2 163.2ZM59.94 170.6H58.94C58.94 173.382 58.6977 175.769 58.2266 177.771L59.2 178L60.1734 178.229C60.689 176.038 60.94 173.491 60.94 170.6H59.94ZM59.2 178V177H14.8V178V179H59.2V178ZM14.8 178L15.7734 177.771C15.3023 175.769 15.06 173.382 15.06 170.6H14.06H13.06C13.06 173.491 13.311 176.038 13.8266 178.229L14.8 178ZM14.06 170.6H15.06C15.06 167.688 15.3034 165.31 15.7701 163.443L14.8 163.2L13.8299 162.957C13.3099 165.037 13.06 167.592 13.06 170.6H14.06ZM14.8 163.2V162.2H7.4V163.2V164.2H14.8V163.2ZM7.4 163.2L8.37342 162.971C7.90229 160.969 7.66 158.582 7.66 155.8H6.66H5.66C5.66 158.691 5.91104 161.238 6.42658 163.429L7.4 163.2ZM6.66 155.8H7.66C7.66 152.888 7.90339 150.51 8.37014 148.643L7.4 148.4L6.42986 148.157C5.90995 150.237 5.66 152.792 5.66 155.8H6.66ZM7.4 148.4V149.4H22.2V148.4V147.4H7.4V148.4ZM22.2 148.4L21.2299 148.643C21.6966 150.51 21.94 152.888 21.94 155.8H22.94H23.94C23.94 152.792 23.6901 150.237 23.1701 148.157L22.2 148.4ZM22.94 155.8H21.94C21.94 158.582 21.6977 160.969 21.2266 162.971L22.2 163.2L23.1734 163.429C23.689 161.238 23.94 158.691 23.94 155.8H22.94ZM22.2 163.2V164.2H51.8V163.2V162.2H22.2V163.2ZM51.8 163.2L52.7734 162.971C52.3023 160.969 52.06 158.582 52.06 155.8H51.06H50.06C50.06 158.691 50.311 161.238 50.8266 163.429L51.8 163.2ZM51.06 155.8H52.06C52.06 152.888 52.3034 150.51 52.7701 148.643L51.8 148.4L50.8299 148.157C50.31 150.237 50.06 152.792 50.06 155.8H51.06ZM51.8 148.4L52.7734 148.171C52.3023 146.169 52.06 143.782 52.06 141H51.06H50.06C50.06 143.891 50.311 146.438 50.8266 148.629L51.8 148.4ZM51.06 141H52.06C52.06 138.088 52.3034 135.71 52.7701 133.843L51.8 133.6L50.8299 133.357C50.31 135.437 50.06 137.992 50.06 141H51.06ZM51.8 133.6V132.6H14.8V133.6V134.6H51.8V133.6ZM14.8 133.6L15.7734 133.371C15.3023 131.369 15.06 128.982 15.06 126.2H14.06H13.06C13.06 129.091 13.311 131.638 13.8266 133.829L14.8 133.6ZM14.06 126.2H15.06C15.06 123.288 15.3034 120.91 15.7701 119.043L14.8 118.8L13.8299 118.557C13.3099 120.637 13.06 123.192 13.06 126.2H14.06ZM14.8 118.8V117.8H7.4V118.8V119.8H14.8V118.8ZM7.4 118.8L8.37342 118.571C7.90229 116.569 7.66 114.182 7.66 111.4H6.66H5.66C5.66 114.291 5.91104 116.838 6.42658 119.029L7.4 118.8ZM6.66 111.4H7.66C7.66 108.488 7.90339 106.11 8.37014 104.243L7.4 104L6.42986 103.757C5.90995 105.837 5.66 108.392 5.66 111.4H6.66ZM7.4 104L8.37342 103.771C7.90229 101.769 7.66 99.3823 7.66 96.6H6.66H5.66C5.66 99.491 5.91104 102.038 6.42658 104.229L7.4 104ZM6.66 96.6H7.66C7.66 93.6883 7.90339 91.3096 8.37014 89.4425L7.4 89.2L6.42986 88.9575C5.90995 91.0371 5.66 93.5917 5.66 96.6H6.66ZM7.4 89.2V90.2H14.8V89.2V88.2H7.4V89.2ZM14.8 89.2L15.7734 88.971C15.3023 86.9687 15.06 84.5823 15.06 81.8H14.06H13.06C13.06 84.691 13.311 87.238 13.8266 89.429L14.8 89.2ZM14.06 81.8H15.06C15.06 78.8883 15.3034 76.5096 15.7701 74.6425L14.8 74.4L13.8299 74.1575C13.3099 76.2371 13.06 78.7917 13.06 81.8H14.06ZM14.8 74.4V75.4H59.2V74.4V73.4H14.8V74.4ZM59.2 74.4L58.2299 74.6425C58.6966 76.5096 58.94 78.8883 58.94 81.8H59.94H60.94C60.94 78.7917 60.6901 76.2371 60.1701 74.1575L59.2 74.4ZM59.94 81.8H58.94C58.94 84.5823 58.6977 86.9687 58.2266 88.971L59.2 89.2L60.1734 89.429C60.689 87.238 60.94 84.691 60.94 81.8H59.94ZM59.2 89.2V90.2H66.6V89.2V88.2H59.2V89.2ZM66.6 89.2L65.6299 89.4425C66.0966 91.3096 66.34 93.6883 66.34 96.6H67.34H68.34C68.34 93.5917 68.0901 91.0371 67.5701 88.9575L66.6 89.2ZM67.34 96.6H66.34C66.34 99.3823 66.0977 101.769 65.6266 103.771L66.6 104L67.5734 104.229C68.089 102.038 68.34 99.491 68.34 96.6H67.34ZM66.6 104V103H51.8V104V105H66.6V104ZM51.8 104L52.7734 103.771C52.3023 101.769 52.06 99.3823 52.06 96.6H51.06H50.06C50.06 99.491 50.311 102.038 50.8266 104.229L51.8 104ZM51.06 96.6H52.06C52.06 93.6883 52.3034 91.3096 52.7701 89.4425L51.8 89.2L50.8299 88.9575C50.31 91.0371 50.06 93.5917 50.06 96.6H51.06ZM51.8 89.2V88.2H22.2V89.2V90.2H51.8V89.2ZM22.2 89.2L21.2299 89.4425C21.6966 91.3096 21.94 93.6883 21.94 96.6H22.94H23.94C23.94 93.5917 23.6901 91.0371 23.1701 88.9575L22.2 89.2ZM22.94 96.6H21.94C21.94 99.3823 21.6977 101.769 21.2266 103.771L22.2 104L23.1734 104.229C23.689 102.038 23.94 99.491 23.94 96.6H22.94ZM22.2 104L21.2299 104.243C21.6966 106.11 21.94 108.488 21.94 111.4H22.94H23.94C23.94 108.392 23.6901 105.837 23.1701 103.757L22.2 104ZM22.94 111.4H21.94C21.94 114.182 21.6977 116.569 21.2266 118.571L22.2 118.8L23.1734 119.029C23.689 116.838 23.94 114.291 23.94 111.4H22.94ZM22.2 118.8V119.8H59.2V118.8V117.8H22.2V118.8ZM59.2 118.8L58.2299 119.043C58.6966 120.91 58.94 123.288 58.94 126.2H59.94H60.94C60.94 123.192 60.6901 120.637 60.1701 118.557L59.2 118.8ZM59.94 126.2H58.94C58.94 128.982 58.6977 131.369 58.2266 133.371L59.2 133.6L60.1734 133.829C60.689 131.638 60.94 129.091 60.94 126.2H59.94ZM59.2 133.6V134.6H66.6V133.6V132.6H59.2V133.6Z" fill="white" mask="url(#path-9-outside-2_5_3)"/>
<mask id="path-11-outside-3_5_3" maskUnits="userSpaceOnUse" x="234" y="73" width="138" height="106" fill="black">
<rect fill="white" x="234" y="73" width="138" height="106"/>
<path d="M295.6 163.2C296.093 165.173 296.34 167.64 296.34 170.6C296.34 173.437 296.093 175.903 295.6 178H280.8C280.307 175.903 280.06 173.437 280.06 170.6C280.06 167.64 280.307 165.173 280.8 163.2H275.25C274.757 161.103 274.51 158.637 274.51 155.8C274.51 152.84 274.757 150.373 275.25 148.4H269.7C269.207 146.303 268.96 143.837 268.96 141C268.96 138.04 269.207 135.573 269.7 133.6H251.2C251.693 135.573 251.94 138.04 251.94 141C251.94 143.837 251.693 146.303 251.2 148.4C251.693 150.373 251.94 152.84 251.94 155.8C251.94 158.637 251.693 161.103 251.2 163.2C251.693 165.173 251.94 167.64 251.94 170.6C251.94 173.437 251.693 175.903 251.2 178H236.4C235.907 175.903 235.66 173.437 235.66 170.6C235.66 167.64 235.907 165.173 236.4 163.2C235.907 161.103 235.66 158.637 235.66 155.8C235.66 152.84 235.907 150.373 236.4 148.4C235.907 146.303 235.66 143.837 235.66 141C235.66 138.04 235.907 135.573 236.4 133.6C235.907 131.503 235.66 129.037 235.66 126.2C235.66 123.24 235.907 120.773 236.4 118.8C235.907 116.703 235.66 114.237 235.66 111.4C235.66 108.44 235.907 105.973 236.4 104C235.907 101.903 235.66 99.4367 235.66 96.6C235.66 93.64 235.907 91.1733 236.4 89.2C235.907 87.1033 235.66 84.6367 235.66 81.8C235.66 78.84 235.907 76.3733 236.4 74.4H288.2C288.693 76.3733 288.94 78.84 288.94 81.8C288.94 84.6367 288.693 87.1033 288.2 89.2H295.6C296.093 91.1733 296.34 93.64 296.34 96.6C296.34 99.4367 296.093 101.903 295.6 104H291.9C292.393 105.973 292.64 108.44 292.64 111.4C292.64 114.237 292.393 116.703 291.9 118.8H280.8C281.293 120.773 281.54 123.24 281.54 126.2C281.54 129.037 281.293 131.503 280.8 133.6H284.5C284.993 135.573 285.24 138.04 285.24 141C285.24 143.837 284.993 146.303 284.5 148.4H290.05C290.543 150.373 290.79 152.84 290.79 155.8C290.79 158.637 290.543 161.103 290.05 163.2H295.6ZM277.1 118.8C276.607 116.703 276.36 114.237 276.36 111.4C276.36 108.44 276.607 105.973 277.1 104C276.607 101.903 276.36 99.4367 276.36 96.6C276.36 93.64 276.607 91.1733 277.1 89.2H251.2C251.693 91.1733 251.94 93.64 251.94 96.6C251.94 99.4367 251.693 101.903 251.2 104C251.693 105.973 251.94 108.44 251.94 111.4C251.94 114.237 251.693 116.703 251.2 118.8H277.1ZM370.412 81.8C370.412 84.6367 370.166 87.1033 369.672 89.2H347.472C347.966 91.1733 348.212 93.64 348.212 96.6C348.212 99.4367 347.966 101.903 347.472 104C347.966 105.973 348.212 108.44 348.212 111.4C348.212 114.237 347.966 116.703 347.472 118.8C347.966 120.773 348.212 123.24 348.212 126.2C348.212 129.037 347.966 131.503 347.472 133.6C347.966 135.573 348.212 138.04 348.212 141C348.212 143.837 347.966 146.303 347.472 148.4C347.966 150.373 348.212 152.84 348.212 155.8C348.212 158.637 347.966 161.103 347.472 163.2C347.966 165.173 348.212 167.64 348.212 170.6C348.212 173.437 347.966 175.903 347.472 178H332.672C332.179 175.903 331.932 173.437 331.932 170.6C331.932 167.64 332.179 165.173 332.672 163.2C332.179 161.103 331.932 158.637 331.932 155.8C331.932 152.84 332.179 150.373 332.672 148.4C332.179 146.303 331.932 143.837 331.932 141C331.932 138.04 332.179 135.573 332.672 133.6C332.179 131.503 331.932 129.037 331.932 126.2C331.932 123.24 332.179 120.773 332.672 118.8C332.179 116.703 331.932 114.237 331.932 111.4C331.932 108.44 332.179 105.973 332.672 104C332.179 101.903 331.932 99.4367 331.932 96.6C331.932 93.64 332.179 91.1733 332.672 89.2H310.472C309.979 87.1033 309.732 84.6367 309.732 81.8C309.732 78.84 309.979 76.3733 310.472 74.4H369.672C370.166 76.3733 370.412 78.84 370.412 81.8Z"/>
</mask>
<path d="M295.6 163.2C296.093 165.173 296.34 167.64 296.34 170.6C296.34 173.437 296.093 175.903 295.6 178H280.8C280.307 175.903 280.06 173.437 280.06 170.6C280.06 167.64 280.307 165.173 280.8 163.2H275.25C274.757 161.103 274.51 158.637 274.51 155.8C274.51 152.84 274.757 150.373 275.25 148.4H269.7C269.207 146.303 268.96 143.837 268.96 141C268.96 138.04 269.207 135.573 269.7 133.6H251.2C251.693 135.573 251.94 138.04 251.94 141C251.94 143.837 251.693 146.303 251.2 148.4C251.693 150.373 251.94 152.84 251.94 155.8C251.94 158.637 251.693 161.103 251.2 163.2C251.693 165.173 251.94 167.64 251.94 170.6C251.94 173.437 251.693 175.903 251.2 178H236.4C235.907 175.903 235.66 173.437 235.66 170.6C235.66 167.64 235.907 165.173 236.4 163.2C235.907 161.103 235.66 158.637 235.66 155.8C235.66 152.84 235.907 150.373 236.4 148.4C235.907 146.303 235.66 143.837 235.66 141C235.66 138.04 235.907 135.573 236.4 133.6C235.907 131.503 235.66 129.037 235.66 126.2C235.66 123.24 235.907 120.773 236.4 118.8C235.907 116.703 235.66 114.237 235.66 111.4C235.66 108.44 235.907 105.973 236.4 104C235.907 101.903 235.66 99.4367 235.66 96.6C235.66 93.64 235.907 91.1733 236.4 89.2C235.907 87.1033 235.66 84.6367 235.66 81.8C235.66 78.84 235.907 76.3733 236.4 74.4H288.2C288.693 76.3733 288.94 78.84 288.94 81.8C288.94 84.6367 288.693 87.1033 288.2 89.2H295.6C296.093 91.1733 296.34 93.64 296.34 96.6C296.34 99.4367 296.093 101.903 295.6 104H291.9C292.393 105.973 292.64 108.44 292.64 111.4C292.64 114.237 292.393 116.703 291.9 118.8H280.8C281.293 120.773 281.54 123.24 281.54 126.2C281.54 129.037 281.293 131.503 280.8 133.6H284.5C284.993 135.573 285.24 138.04 285.24 141C285.24 143.837 284.993 146.303 284.5 148.4H290.05C290.543 150.373 290.79 152.84 290.79 155.8C290.79 158.637 290.543 161.103 290.05 163.2H295.6ZM277.1 118.8C276.607 116.703 276.36 114.237 276.36 111.4C276.36 108.44 276.607 105.973 277.1 104C276.607 101.903 276.36 99.4367 276.36 96.6C276.36 93.64 276.607 91.1733 277.1 89.2H251.2C251.693 91.1733 251.94 93.64 251.94 96.6C251.94 99.4367 251.693 101.903 251.2 104C251.693 105.973 251.94 108.44 251.94 111.4C251.94 114.237 251.693 116.703 251.2 118.8H277.1ZM370.412 81.8C370.412 84.6367 370.166 87.1033 369.672 89.2H347.472C347.966 91.1733 348.212 93.64 348.212 96.6C348.212 99.4367 347.966 101.903 347.472 104C347.966 105.973 348.212 108.44 348.212 111.4C348.212 114.237 347.966 116.703 347.472 118.8C347.966 120.773 348.212 123.24 348.212 126.2C348.212 129.037 347.966 131.503 347.472 133.6C347.966 135.573 348.212 138.04 348.212 141C348.212 143.837 347.966 146.303 347.472 148.4C347.966 150.373 348.212 152.84 348.212 155.8C348.212 158.637 347.966 161.103 347.472 163.2C347.966 165.173 348.212 167.64 348.212 170.6C348.212 173.437 347.966 175.903 347.472 178H332.672C332.179 175.903 331.932 173.437 331.932 170.6C331.932 167.64 332.179 165.173 332.672 163.2C332.179 161.103 331.932 158.637 331.932 155.8C331.932 152.84 332.179 150.373 332.672 148.4C332.179 146.303 331.932 143.837 331.932 141C331.932 138.04 332.179 135.573 332.672 133.6C332.179 131.503 331.932 129.037 331.932 126.2C331.932 123.24 332.179 120.773 332.672 118.8C332.179 116.703 331.932 114.237 331.932 111.4C331.932 108.44 332.179 105.973 332.672 104C332.179 101.903 331.932 99.4367 331.932 96.6C331.932 93.64 332.179 91.1733 332.672 89.2H310.472C309.979 87.1033 309.732 84.6367 309.732 81.8C309.732 78.84 309.979 76.3733 310.472 74.4H369.672C370.166 76.3733 370.412 78.84 370.412 81.8Z" fill="white"/>
<path d="M295.6 163.2L296.57 162.957L296.381 162.2H295.6V163.2ZM295.6 178V179H296.392L296.573 178.229L295.6 178ZM280.8 178L279.827 178.229L280.008 179H280.8V178ZM280.8 163.2L281.77 163.443L282.081 162.2H280.8V163.2ZM275.25 163.2L274.277 163.429L274.458 164.2H275.25V163.2ZM275.25 148.4L276.22 148.643L276.531 147.4H275.25V148.4ZM269.7 148.4L268.727 148.629L268.908 149.4H269.7V148.4ZM269.7 133.6L270.67 133.843L270.981 132.6H269.7V133.6ZM251.2 133.6V132.6H249.919L250.23 133.843L251.2 133.6ZM251.2 148.4L250.227 148.171L250.171 148.407L250.23 148.643L251.2 148.4ZM251.2 163.2L250.227 162.971L250.171 163.207L250.23 163.443L251.2 163.2ZM251.2 178V179H251.992L252.173 178.229L251.2 178ZM236.4 178L235.427 178.229L235.608 179H236.4V178ZM236.4 163.2L237.37 163.443L237.429 163.207L237.373 162.971L236.4 163.2ZM236.4 148.4L237.37 148.643L237.429 148.407L237.373 148.171L236.4 148.4ZM236.4 133.6L237.37 133.843L237.429 133.607L237.373 133.371L236.4 133.6ZM236.4 118.8L237.37 119.043L237.429 118.807L237.373 118.571L236.4 118.8ZM236.4 104L237.37 104.243L237.429 104.007L237.373 103.771L236.4 104ZM236.4 89.2L237.37 89.4425L237.429 89.2071L237.373 88.971L236.4 89.2ZM236.4 74.4V73.4H235.619L235.43 74.1575L236.4 74.4ZM288.2 74.4L289.17 74.1575L288.981 73.4H288.2V74.4ZM288.2 89.2L287.227 88.971L286.937 90.2H288.2V89.2ZM295.6 89.2L296.57 88.9575L296.381 88.2H295.6V89.2ZM295.6 104V105H296.392L296.573 104.229L295.6 104ZM291.9 104V103H290.619L290.93 104.243L291.9 104ZM291.9 118.8V119.8H292.692L292.873 119.029L291.9 118.8ZM280.8 118.8V117.8H279.519L279.83 119.043L280.8 118.8ZM280.8 133.6L279.827 133.371L279.537 134.6H280.8V133.6ZM284.5 133.6L285.47 133.357L285.281 132.6H284.5V133.6ZM284.5 148.4L283.527 148.171L283.237 149.4H284.5V148.4ZM290.05 148.4L291.02 148.157L290.831 147.4H290.05V148.4ZM290.05 163.2L289.077 162.971L288.787 164.2H290.05V163.2ZM277.1 118.8V119.8H278.363L278.073 118.571L277.1 118.8ZM277.1 104L278.07 104.243L278.129 104.007L278.073 103.771L277.1 104ZM277.1 89.2L278.07 89.4425L278.381 88.2H277.1V89.2ZM251.2 89.2V88.2H249.919L250.23 89.4425L251.2 89.2ZM251.2 104L250.227 103.771L250.171 104.007L250.23 104.243L251.2 104ZM251.2 118.8L250.227 118.571L249.937 119.8H251.2V118.8ZM295.6 163.2L294.63 163.443C295.097 165.31 295.34 167.688 295.34 170.6H296.34H297.34C297.34 167.592 297.09 165.037 296.57 162.957L295.6 163.2ZM296.34 170.6H295.34C295.34 173.382 295.098 175.769 294.627 177.771L295.6 178L296.573 178.229C297.089 176.038 297.34 173.491 297.34 170.6H296.34ZM295.6 178V177H280.8V178V179H295.6V178ZM280.8 178L281.773 177.771C281.302 175.769 281.06 173.382 281.06 170.6H280.06H279.06C279.06 173.491 279.311 176.038 279.827 178.229L280.8 178ZM280.06 170.6H281.06C281.06 167.688 281.303 165.31 281.77 163.443L280.8 163.2L279.83 162.957C279.31 165.037 279.06 167.592 279.06 170.6H280.06ZM280.8 163.2V162.2H275.25V163.2V164.2H280.8V163.2ZM275.25 163.2L276.223 162.971C275.752 160.969 275.51 158.582 275.51 155.8H274.51H273.51C273.51 158.691 273.761 161.238 274.277 163.429L275.25 163.2ZM274.51 155.8H275.51C275.51 152.888 275.753 150.51 276.22 148.643L275.25 148.4L274.28 148.157C273.76 150.237 273.51 152.792 273.51 155.8H274.51ZM275.25 148.4V147.4H269.7V148.4V149.4H275.25V148.4ZM269.7 148.4L270.673 148.171C270.202 146.169 269.96 143.782 269.96 141H268.96H267.96C267.96 143.891 268.211 146.438 268.727 148.629L269.7 148.4ZM268.96 141H269.96C269.96 138.088 270.203 135.71 270.67 133.843L269.7 133.6L268.73 133.357C268.21 135.437 267.96 137.992 267.96 141H268.96ZM269.7 133.6V132.6H251.2V133.6V134.6H269.7V133.6ZM251.2 133.6L250.23 133.843C250.697 135.71 250.94 138.088 250.94 141H251.94H252.94C252.94 137.992 252.69 135.437 252.17 133.357L251.2 133.6ZM251.94 141H250.94C250.94 143.782 250.698 146.169 250.227 148.171L251.2 148.4L252.173 148.629C252.689 146.438 252.94 143.891 252.94 141H251.94ZM251.2 148.4L250.23 148.643C250.697 150.51 250.94 152.888 250.94 155.8H251.94H252.94C252.94 152.792 252.69 150.237 252.17 148.157L251.2 148.4ZM251.94 155.8H250.94C250.94 158.582 250.698 160.969 250.227 162.971L251.2 163.2L252.173 163.429C252.689 161.238 252.94 158.691 252.94 155.8H251.94ZM251.2 163.2L250.23 163.443C250.697 165.31 250.94 167.688 250.94 170.6H251.94H252.94C252.94 167.592 252.69 165.037 252.17 162.957L251.2 163.2ZM251.94 170.6H250.94C250.94 173.382 250.698 175.769 250.227 177.771L251.2 178L252.173 178.229C252.689 176.038 252.94 173.491 252.94 170.6H251.94ZM251.2 178V177H236.4V178V179H251.2V178ZM236.4 178L237.373 177.771C236.902 175.769 236.66 173.382 236.66 170.6H235.66H234.66C234.66 173.491 234.911 176.038 235.427 178.229L236.4 178ZM235.66 170.6H236.66C236.66 167.688 236.903 165.31 237.37 163.443L236.4 163.2L235.43 162.957C234.91 165.037 234.66 167.592 234.66 170.6H235.66ZM236.4 163.2L237.373 162.971C236.902 160.969 236.66 158.582 236.66 155.8H235.66H234.66C234.66 158.691 234.911 161.238 235.427 163.429L236.4 163.2ZM235.66 155.8H236.66C236.66 152.888 236.903 150.51 237.37 148.643L236.4 148.4L235.43 148.157C234.91 150.237 234.66 152.792 234.66 155.8H235.66ZM236.4 148.4L237.373 148.171C236.902 146.169 236.66 143.782 236.66 141H235.66H234.66C234.66 143.891 234.911 146.438 235.427 148.629L236.4 148.4ZM235.66 141H236.66C236.66 138.088 236.903 135.71 237.37 133.843L236.4 133.6L235.43 133.357C234.91 135.437 234.66 137.992 234.66 141H235.66ZM236.4 133.6L237.373 133.371C236.902 131.369 236.66 128.982 236.66 126.2H235.66H234.66C234.66 129.091 234.911 131.638 235.427 133.829L236.4 133.6ZM235.66 126.2H236.66C236.66 123.288 236.903 120.91 237.37 119.043L236.4 118.8L235.43 118.557C234.91 120.637 234.66 123.192 234.66 126.2H235.66ZM236.4 118.8L237.373 118.571C236.902 116.569 236.66 114.182 236.66 111.4H235.66H234.66C234.66 114.291 234.911 116.838 235.427 119.029L236.4 118.8ZM235.66 111.4H236.66C236.66 108.488 236.903 106.11 237.37 104.243L236.4 104L235.43 103.757C234.91 105.837 234.66 108.392 234.66 111.4H235.66ZM236.4 104L237.373 103.771C236.902 101.769 236.66 99.3823 236.66 96.6H235.66H234.66C234.66 99.491 234.911 102.038 235.427 104.229L236.4 104ZM235.66 96.6H236.66C236.66 93.6883 236.903 91.3096 237.37 89.4425L236.4 89.2L235.43 88.9575C234.91 91.0371 234.66 93.5917 234.66 96.6H235.66ZM236.4 89.2L237.373 88.971C236.902 86.9687 236.66 84.5823 236.66 81.8H235.66H234.66C234.66 84.691 234.911 87.238 235.427 89.429L236.4 89.2ZM235.66 81.8H236.66C236.66 78.8883 236.903 76.5096 237.37 74.6425L236.4 74.4L235.43 74.1575C234.91 76.2371 234.66 78.7917 234.66 81.8H235.66ZM236.4 74.4V75.4H288.2V74.4V73.4H236.4V74.4ZM288.2 74.4L287.23 74.6425C287.697 76.5096 287.94 78.8883 287.94 81.8H288.94H289.94C289.94 78.7917 289.69 76.2371 289.17 74.1575L288.2 74.4ZM288.94 81.8H287.94C287.94 84.5823 287.698 86.9687 287.227 88.971L288.2 89.2L289.173 89.429C289.689 87.238 289.94 84.691 289.94 81.8H288.94ZM288.2 89.2V90.2H295.6V89.2V88.2H288.2V89.2ZM295.6 89.2L294.63 89.4425C295.097 91.3096 295.34 93.6883 295.34 96.6H296.34H297.34C297.34 93.5917 297.09 91.0371 296.57 88.9575L295.6 89.2ZM296.34 96.6H295.34C295.34 99.3823 295.098 101.769 294.627 103.771L295.6 104L296.573 104.229C297.089 102.038 297.34 99.491 297.34 96.6H296.34ZM295.6 104V103H291.9V104V105H295.6V104ZM291.9 104L290.93 104.243C291.397 106.11 291.64 108.488 291.64 111.4H292.64H293.64C293.64 108.392 293.39 105.837 292.87 103.757L291.9 104ZM292.64 111.4H291.64C291.64 114.182 291.398 116.569 290.927 118.571L291.9 118.8L292.873 119.029C293.389 116.838 293.64 114.291 293.64 111.4H292.64ZM291.9 118.8V117.8H280.8V118.8V119.8H291.9V118.8ZM280.8 118.8L279.83 119.043C280.297 120.91 280.54 123.288 280.54 126.2H281.54H282.54C282.54 123.192 282.29 120.637 281.77 118.557L280.8 118.8ZM281.54 126.2H280.54C280.54 128.982 280.298 131.369 279.827 133.371L280.8 133.6L281.773 133.829C282.289 131.638 282.54 129.091 282.54 126.2H281.54ZM280.8 133.6V134.6H284.5V133.6V132.6H280.8V133.6ZM284.5 133.6L283.53 133.843C283.997 135.71 284.24 138.088 284.24 141H285.24H286.24C286.24 137.992 285.99 135.437 285.47 133.357L284.5 133.6ZM285.24 141H284.24C284.24 143.782 283.998 146.169 283.527 148.171L284.5 148.4L285.473 148.629C285.989 146.438 286.24 143.891 286.24 141H285.24ZM284.5 148.4V149.4H290.05V148.4V147.4H284.5V148.4ZM290.05 148.4L289.08 148.643C289.547 150.51 289.79 152.888 289.79 155.8H290.79H291.79C291.79 152.792 291.54 150.237 291.02 148.157L290.05 148.4ZM290.79 155.8H289.79C289.79 158.582 289.548 160.969 289.077 162.971L290.05 163.2L291.023 163.429C291.539 161.238 291.79 158.691 291.79 155.8H290.79ZM290.05 163.2V164.2H295.6V163.2V162.2H290.05V163.2ZM277.1 118.8L278.073 118.571C277.602 116.569 277.36 114.182 277.36 111.4H276.36H275.36C275.36 114.291 275.611 116.838 276.127 119.029L277.1 118.8ZM276.36 111.4H277.36C277.36 108.488 277.603 106.11 278.07 104.243L277.1 104L276.13 103.757C275.61 105.837 275.36 108.392 275.36 111.4H276.36ZM277.1 104L278.073 103.771C277.602 101.769 277.36 99.3823 277.36 96.6H276.36H275.36C275.36 99.491 275.611 102.038 276.127 104.229L277.1 104ZM276.36 96.6H277.36C277.36 93.6883 277.603 91.3096 278.07 89.4425L277.1 89.2L276.13 88.9575C275.61 91.0371 275.36 93.5917 275.36 96.6H276.36ZM277.1 89.2V88.2H251.2V89.2V90.2H277.1V89.2ZM251.2 89.2L250.23 89.4425C250.697 91.3096 250.94 93.6883 250.94 96.6H251.94H252.94C252.94 93.5917 252.69 91.0371 252.17 88.9575L251.2 89.2ZM251.94 96.6H250.94C250.94 99.3823 250.698 101.769 250.227 103.771L251.2 104L252.173 104.229C252.689 102.038 252.94 99.491 252.94 96.6H251.94ZM251.2 104L250.23 104.243C250.697 106.11 250.94 108.488 250.94 111.4H251.94H252.94C252.94 108.392 252.69 105.837 252.17 103.757L251.2 104ZM251.94 111.4H250.94C250.94 114.182 250.698 116.569 250.227 118.571L251.2 118.8L252.173 119.029C252.689 116.838 252.94 114.291 252.94 111.4H251.94ZM251.2 118.8V119.8H277.1V118.8V117.8H251.2V118.8ZM369.672 89.2V90.2H370.464L370.646 89.429L369.672 89.2ZM347.472 89.2V88.2H346.191L346.502 89.4425L347.472 89.2ZM347.472 104L346.499 103.771L346.443 104.007L346.502 104.243L347.472 104ZM347.472 118.8L346.499 118.571L346.443 118.807L346.502 119.043L347.472 118.8ZM347.472 133.6L346.499 133.371L346.443 133.607L346.502 133.843L347.472 133.6ZM347.472 148.4L346.499 148.171L346.443 148.407L346.502 148.643L347.472 148.4ZM347.472 163.2L346.499 162.971L346.443 163.207L346.502 163.443L347.472 163.2ZM347.472 178V179H348.264L348.446 178.229L347.472 178ZM332.672 178L331.699 178.229L331.88 179H332.672V178ZM332.672 163.2L333.642 163.443L333.701 163.207L333.646 162.971L332.672 163.2ZM332.672 148.4L333.642 148.643L333.701 148.407L333.646 148.171L332.672 148.4ZM332.672 133.6L333.642 133.843L333.701 133.607L333.646 133.371L332.672 133.6ZM332.672 118.8L333.642 119.043L333.701 118.807L333.646 118.571L332.672 118.8ZM332.672 104L333.642 104.243L333.701 104.007L333.646 103.771L332.672 104ZM332.672 89.2L333.642 89.4425L333.953 88.2H332.672V89.2ZM310.472 89.2L309.499 89.429L309.68 90.2H310.472V89.2ZM310.472 74.4V73.4H309.691L309.502 74.1575L310.472 74.4ZM369.672 74.4L370.642 74.1575L370.453 73.4H369.672V74.4ZM370.412 81.8H369.412C369.412 84.5823 369.17 86.9687 368.699 88.971L369.672 89.2L370.646 89.429C371.161 87.238 371.412 84.691 371.412 81.8H370.412ZM369.672 89.2V88.2H347.472V89.2V90.2H369.672V89.2ZM347.472 89.2L346.502 89.4425C346.969 91.3096 347.212 93.6883 347.212 96.6H348.212H349.212C349.212 93.5917 348.962 91.0371 348.442 88.9575L347.472 89.2ZM348.212 96.6H347.212C347.212 99.3823 346.97 101.769 346.499 103.771L347.472 104L348.446 104.229C348.961 102.038 349.212 99.491 349.212 96.6H348.212ZM347.472 104L346.502 104.243C346.969 106.11 347.212 108.488 347.212 111.4H348.212H349.212C349.212 108.392 348.962 105.837 348.442 103.757L347.472 104ZM348.212 111.4H347.212C347.212 114.182 346.97 116.569 346.499 118.571L347.472 118.8L348.446 119.029C348.961 116.838 349.212 114.291 349.212 111.4H348.212ZM347.472 118.8L346.502 119.043C346.969 120.91 347.212 123.288 347.212 126.2H348.212H349.212C349.212 123.192 348.962 120.637 348.442 118.557L347.472 118.8ZM348.212 126.2H347.212C347.212 128.982 346.97 131.369 346.499 133.371L347.472 133.6L348.446 133.829C348.961 131.638 349.212 129.091 349.212 126.2H348.212ZM347.472 133.6L346.502 133.843C346.969 135.71 347.212 138.088 347.212 141H348.212H349.212C349.212 137.992 348.962 135.437 348.442 133.357L347.472 133.6ZM348.212 141H347.212C347.212 143.782 346.97 146.169 346.499 148.171L347.472 148.4L348.446 148.629C348.961 146.438 349.212 143.891 349.212 141H348.212ZM347.472 148.4L346.502 148.643C346.969 150.51 347.212 152.888 347.212 155.8H348.212H349.212C349.212 152.792 348.962 150.237 348.442 148.157L347.472 148.4ZM348.212 155.8H347.212C347.212 158.582 346.97 160.969 346.499 162.971L347.472 163.2L348.446 163.429C348.961 161.238 349.212 158.691 349.212 155.8H348.212ZM347.472 163.2L346.502 163.443C346.969 165.31 347.212 167.688 347.212 170.6H348.212H349.212C349.212 167.592 348.962 165.037 348.442 162.957L347.472 163.2ZM348.212 170.6H347.212C347.212 173.382 346.97 175.769 346.499 177.771L347.472 178L348.446 178.229C348.961 176.038 349.212 173.491 349.212 170.6H348.212ZM347.472 178V177H332.672V178V179H347.472V178ZM332.672 178L333.646 177.771C333.175 175.769 332.932 173.382 332.932 170.6H331.932H330.932C330.932 173.491 331.183 176.038 331.699 178.229L332.672 178ZM331.932 170.6H332.932C332.932 167.688 333.176 165.31 333.642 163.443L332.672 163.2L331.702 162.957C331.182 165.037 330.932 167.592 330.932 170.6H331.932ZM332.672 163.2L333.646 162.971C333.175 160.969 332.932 158.582 332.932 155.8H331.932H330.932C330.932 158.691 331.183 161.238 331.699 163.429L332.672 163.2ZM331.932 155.8H332.932C332.932 152.888 333.176 150.51 333.642 148.643L332.672 148.4L331.702 148.157C331.182 150.237 330.932 152.792 330.932 155.8H331.932ZM332.672 148.4L333.646 148.171C333.175 146.169 332.932 143.782 332.932 141H331.932H330.932C330.932 143.891 331.183 146.438 331.699 148.629L332.672 148.4ZM331.932 141H332.932C332.932 138.088 333.176 135.71 333.642 133.843L332.672 133.6L331.702 133.357C331.182 135.437 330.932 137.992 330.932 141H331.932ZM332.672 133.6L333.646 133.371C333.175 131.369 332.932 128.982 332.932 126.2H331.932H330.932C330.932 129.091 331.183 131.638 331.699 133.829L332.672 133.6ZM331.932 126.2H332.932C332.932 123.288 333.176 120.91 333.642 119.043L332.672 118.8L331.702 118.557C331.182 120.637 330.932 123.192 330.932 126.2H331.932ZM332.672 118.8L333.646 118.571C333.175 116.569 332.932 114.182 332.932 111.4H331.932H330.932C330.932 114.291 331.183 116.838 331.699 119.029L332.672 118.8ZM331.932 111.4H332.932C332.932 108.488 333.176 106.11 333.642 104.243L332.672 104L331.702 103.757C331.182 105.837 330.932 108.392 330.932 111.4H331.932ZM332.672 104L333.646 103.771C333.175 101.769 332.932 99.3823 332.932 96.6H331.932H330.932C330.932 99.491 331.183 102.038 331.699 104.229L332.672 104ZM331.932 96.6H332.932C332.932 93.6883 333.176 91.3096 333.642 89.4425L332.672 89.2L331.702 88.9575C331.182 91.0371 330.932 93.5917 330.932 96.6H331.932ZM332.672 89.2V88.2H310.472V89.2V90.2H332.672V89.2ZM310.472 89.2L311.446 88.971C310.975 86.9687 310.732 84.5823 310.732 81.8H309.732H308.732C308.732 84.691 308.983 87.238 309.499 89.429L310.472 89.2ZM309.732 81.8H310.732C310.732 78.8883 310.976 76.5096 311.442 74.6425L310.472 74.4L309.502 74.1575C308.982 76.2371 308.732 78.7917 308.732 81.8H309.732ZM310.472 74.4V75.4H369.672V74.4V73.4H310.472V74.4ZM369.672 74.4L368.702 74.6425C369.169 76.5096 369.412 78.8883 369.412 81.8H370.412H371.412C371.412 78.7917 371.162 76.2371 370.642 74.1575L369.672 74.4Z" fill="white" mask="url(#path-11-outside-3_5_3)"/>
</g>
<defs>
<filter id="filter0_d_5_3" x="14.5" y="-0.500004" width="118.411" height="48.5" filterUnits="userSpaceOnUse" color-interpolation-filters="sRGB">
<feFlood flood-opacity="0" result="BackgroundImageFix"/>
<feColorMatrix in="SourceAlpha" type="matrix" values="0 0 0 0 0 0 0 0 0 0 0 0 0 0 0 0 0 0 127 0" result="hardAlpha"/>
<feOffset dy="4"/>
<feGaussianBlur stdDeviation="2"/>
<feComposite in2="hardAlpha" operator="out"/>
<feColorMatrix type="matrix" values="0 0 0 0 0 0 0 0 0 0 0 0 0 0 0 0 0 0 0.25 0"/>
<feBlend mode="normal" in2="BackgroundImageFix" result="effect1_dropShadow_5_3"/>
<feBlend mode="normal" in="SourceGraphic" in2="effect1_dropShadow_5_3" result="shape"/>
</filter>
<clipPath id="clip0_5_3">
<rect width="368" height="193" fill="white"/>
</clipPath>
</defs>
</svg>
